<?xml version="1.0" encoding="utf-8"?>
<!-- Generator: Adobe Illustrator 28.3.0, SVG Export Plug-In . SVG Version: 6.00 Build 0)  -->
<svg version="1.1" id="Capa_1" xmlns="http://www.w3.org/2000/svg" xmlns:xlink="http://www.w3.org/1999/xlink" x="0px" y="0px"
	 viewBox="0 0 24 24" style="enable-background:new 0 0 24 24;" xml:space="preserve">
<style type="text/css">
	.st0{fill:#FFAE60;}
	.st1{fill:#FFFFFF;}
	.st2{stroke:#000000;stroke-width:2;}
	.st3{fill:#F15A24;}
	.st4{fill:#E6E7E8;}
	.st5{fill-rule:evenodd;clip-rule:evenodd;fill:#25221E;}
	.st6{fill-rule:evenodd;clip-rule:evenodd;fill:#4D4D4D;}
	.st7{fill-rule:evenodd;clip-rule:evenodd;fill:#C1C1C8;}
	.st8{fill-rule:evenodd;clip-rule:evenodd;fill:#C5C6CD;}
	.st9{fill-rule:evenodd;clip-rule:evenodd;fill:#C2C4CC;}
	.st10{fill-rule:evenodd;clip-rule:evenodd;fill:#CFD0D8;}
	.st11{fill-rule:evenodd;clip-rule:evenodd;fill:#CDCDD4;}
	.st12{fill-rule:evenodd;clip-rule:evenodd;fill:#D4D4DA;}
	.st13{fill-rule:evenodd;clip-rule:evenodd;fill:#FFFFFF;}
	.st14{fill:none;stroke:#B7B2A0;stroke-width:0.216;stroke-miterlimit:22.926;}
	.st15{fill-rule:evenodd;clip-rule:evenodd;fill:#B5B2B0;}
	.st16{fill-rule:evenodd;clip-rule:evenodd;}
	.st17{fill-rule:evenodd;clip-rule:evenodd;fill:#EC5A24;}
	.st18{fill:#EC5A24;}
	.st19{fill:#808080;}
	.st20{fill:#E6E9E4;}
	.st21{fill:#333333;}
	.st22{opacity:0.19;}
	.st23{clip-path:url(#SVGID_00000039855900446787202830000000233518764998957184_);}
	.st24{fill:#D5DAD3;}
	.st25{fill:#EEF5F6;}
	.st26{fill:#DEECF1;}
	.st27{fill:#A8D3D8;}
	.st28{fill:#8EBAC5;}
	.st29{fill:#CB97E7;}
	.st30{fill:#FE76A8;}
	.st31{fill:#FE5694;}
	.st32{fill:#7CA1B1;}
	.st33{fill:#75D3EB;}
	.st34{fill:#50BFEB;}
	.st35{fill:#B4E77A;}
	.st36{fill:#94D77B;}
	.st37{fill:#FFDC78;}
	.st38{fill:#FFCC5C;}
	.st39{fill:#B4D2E2;}
	.st40{fill:#FFC344;}
	.st41{fill:#FEB237;}
	.st42{fill:#017297;}
	.st43{fill:#8ABBD5;}
	.st44{fill:#F7973A;}
	.st45{fill:#1A1A1A;}
	.st46{fill:#5E5955;}
	.st47{fill:#464350;}
	.st48{fill:#FBBB7E;}
	.st49{fill:#FFD79B;}
	.st50{fill:#F37B21;}
	.st51{fill:#5A4841;}
	.st52{fill:#FFA000;}
	.st53{fill:#FFC107;}
	.st54{fill:#A7A7A7;}
</style>
<path class="st0" d="M21.02,24H2.98C1.33,24,0,22.67,0,21.02V2.98C0,1.33,1.33,0,2.98,0h18.04C22.67,0,24,1.33,24,2.98v18.04
	C24,22.67,22.67,24,21.02,24z"/>
<path class="st1" d="M22.07,1.2c0.41,0,0.73,0.33,0.73,0.73v20.13c0,0.41-0.33,0.73-0.73,0.73H1.93c-0.41,0-0.73-0.33-0.73-0.73
	V1.93c0-0.41,0.33-0.73,0.73-0.73H22.07 M22.07,0H1.93C0.87,0,0,0.87,0,1.93v20.13C0,23.13,0.87,24,1.93,24h20.13
	c1.07,0,1.93-0.87,1.93-1.93V1.93C24,0.87,23.13,0,22.07,0L22.07,0z"/>
<path id="angle-right_00000147910614549309888640000007653828031913739926_" class="st1" d="M14.5,5.98c0,0.23-0.09,0.45-0.25,0.61
	l-4.4,4.4c-0.56,0.56-0.56,1.47,0,2.03c0,0,0,0,0,0l4.4,4.4c0.34,0.34,0.34,0.89,0,1.22c-0.34,0.34-0.89,0.34-1.22,0l0,0l-4.4-4.4
	c-1.23-1.23-1.23-3.23,0-4.47l4.4-4.4c0.34-0.34,0.88-0.34,1.22,0C14.4,5.53,14.49,5.75,14.5,5.98L14.5,5.98z"/>
</svg>
